<svg width="597" height="609" viewBox="0 0 597 609" fill="none" xmlns="http://www.w3.org/2000/svg">
    <path
        d="M328.944 87.5663C326.304 86.3052 323.309 85.6414 320.26 85.6414V608.008C323.309 608.008 326.304 607.344 328.944 606.083L587.336 482.71C589.979 481.448 592.172 479.633 593.697 477.447C595.221 475.261 596.023 472.781 596.021 470.257V223.439C596.023 220.916 595.221 218.436 593.697 216.25C592.172 214.064 589.979 212.249 587.336 210.987L328.944 87.5663Z"
        fill="#333333" />
    <path
        d="M267.076 1.92494C269.717 0.66389 272.712 0 275.761 0V522.366C272.712 522.366 269.717 521.702 267.076 520.441L8.68399 397.068C6.04193 395.806 3.8483 393.991 2.32373 391.805C0.799194 389.619 -0.00241089 387.14 -0.000457764 384.616V137.798C-0.00241089 135.274 0.799194 132.795 2.32373 130.609C3.8483 128.423 6.04193 126.608 8.68399 125.346L267.076 1.92494Z"
        fill="#333333" />
</svg>